<?xml version="1.0" standalone="no"?>
<!DOCTYPE svg PUBLIC "-//W3C//DTD SVG 20010904//EN"
 "http://www.w3.org/TR/2001/REC-SVG-20010904/DTD/svg10.dtd">
<svg version="1.0" xmlns="http://www.w3.org/2000/svg"
 width="1563.000000pt" height="1563.000000pt" viewBox="0 0 1563.000000 1563.000000"
 preserveAspectRatio="xMidYMid meet">
<metadata>
Created by potrace 1.14, written by Peter Selinger 2001-2017
</metadata>
<g transform="translate(0.000000,1563.000000) scale(0.100000,-0.100000)"
fill="#000000" stroke="none">
<path d="M8080 11086 c0 -2 7 -7 16 -10 8 -3 12 -2 9 4 -6 10 -25 14 -25 6z"/>
<path d="M8140 11056 c0 -2 8 -10 18 -17 15 -13 16 -12 3 4 -13 16 -21 21 -21
13z"/>
<path d="M7234 11034 c-18 -14 -18 -15 4 -4 12 6 22 13 22 15 0 8 -5 6 -26
-11z"/>
<path d="M8200 11005 c13 -14 26 -25 28 -25 3 0 -5 11 -18 25 -13 14 -26 25
-28 25 -3 0 5 -11 18 -25z"/>
<path d="M7813 10953 c9 -2 25 -2 35 0 9 3 1 5 -18 5 -19 0 -27 -2 -17 -5z"/>
<path d="M8310 10895 c19 -19 36 -35 39 -35 3 0 -10 16 -29 35 -19 19 -36 35
-39 35 -3 0 10 -16 29 -35z"/>
<path d="M7010 10863 l-55 -58 58 55 c53 50 62 60 54 60 -1 0 -27 -26 -57 -57z"/>
<path d="M8350 10846 c0 -2 8 -10 18 -17 15 -13 16 -12 3 4 -13 16 -21 21 -21
13z"/>
<path d="M8384 10803 c4 -7 4 -13 -1 -13 -4 0 -65 -7 -135 -15 -313 -36 -569
-102 -873 -225 -107 -43 -109 -43 -125 -41 -8 2 -12 -1 -8 -5 5 -4 -43 -35
-105 -68 -61 -34 -130 -72 -152 -86 -34 -21 -38 -21 -25 -5 8 11 -4 4 -25 -16
-40 -36 -199 -149 -210 -149 -4 0 -3 5 1 12 5 7 3 8 -5 4 -7 -5 -10 -10 -7
-13 8 -9 -118 -113 -131 -108 -7 2 -15 -1 -19 -7 -5 -7 -2 -8 6 -3 7 4 -56
-59 -140 -141 -83 -82 -156 -150 -161 -152 -5 -2 -9 -8 -9 -14 0 -5 -21 -33
-46 -62 -26 -28 -85 -102 -131 -163 -47 -62 -88 -113 -92 -113 -4 0 -8 -6 -8
-12 0 -7 -22 -49 -50 -93 -27 -44 -76 -129 -108 -190 -32 -60 -61 -112 -64
-115 -3 -3 -8 -14 -9 -25 -2 -11 -11 -33 -19 -48 -8 -16 -35 -81 -60 -145 -31
-80 -56 -130 -81 -157 l-37 -40 34 30 c27 24 33 26 27 10 -15 -39 -77 -271
-83 -308 -3 -20 -10 -40 -15 -43 -4 -3 -30 10 -56 28 -63 46 -77 53 -69 41 4
-6 34 -28 67 -49 50 -32 60 -43 55 -61 -3 -12 -10 -57 -15 -100 -17 -133 -20
-144 -33 -136 -8 4 -7 1 1 -9 18 -23 12 -84 -8 -80 -12 3 -13 1 -2 -9 6 -7 12
-33 12 -58 l-1 -46 -19 35 c-11 19 -19 31 -20 25 0 -5 9 -24 20 -42 15 -26 17
-38 9 -65 -11 -41 -11 -41 1 -33 6 3 10 -1 10 -10 0 -9 -4 -13 -10 -10 -6 4
-10 -7 -9 -27 1 -31 2 -31 8 -8 5 14 8 -39 8 -120 1 -80 3 -158 7 -175 8 -45
26 -159 25 -170 0 -5 -6 1 -14 15 -22 38 -18 15 5 -30 11 -21 26 -76 34 -122
21 -120 60 -264 113 -413 25 -71 46 -143 46 -158 0 -16 3 -24 6 -19 6 10 141
-273 141 -296 0 -7 4 -11 9 -8 4 3 13 -6 20 -20 41 -91 239 -379 333 -486 33
-37 57 -72 54 -76 -3 -5 8 -22 24 -37 17 -16 30 -25 30 -20 0 5 43 -33 95 -85
65 -64 91 -97 82 -102 -9 -6 -8 -8 3 -8 8 0 29 -12 45 -26 17 -14 24 -22 16
-18 -10 5 -12 3 -7 -5 5 -7 14 -10 20 -8 7 3 44 -20 82 -50 105 -84 257 -190
358 -250 49 -29 86 -53 80 -54 -5 0 15 -9 45 -21 38 -14 50 -23 40 -29 -10 -6
-6 -9 13 -9 14 0 50 -11 80 -25 43 -20 48 -25 28 -26 -14 -1 -5 -5 20 -9 25
-4 98 -28 162 -54 150 -59 353 -119 493 -147 61 -12 119 -29 129 -38 11 -9 16
-10 12 -3 -8 13 4 13 134 -4 86 -11 93 -13 119 -36 l26 -23 -19 23 -19 22 54
0 c30 0 61 -6 68 -13 11 -9 12 -9 7 0 -5 10 34 12 171 12 l178 1 50 -48 50
-47 -43 45 c-23 25 -42 48 -42 52 0 3 42 9 93 13 132 11 139 12 170 20 16 4
27 3 27 -3 0 -12 -25 -34 -32 -27 -2 3 -5 -1 -5 -9 0 -8 6 -12 15 -9 10 4 9
-4 -6 -33 -27 -52 -136 -155 -206 -194 -64 -36 -76 -51 -18 -21 53 27 131 86
165 124 31 36 37 23 7 -16 -11 -14 -20 -29 -20 -34 0 -5 -25 -37 -56 -72 -49
-53 -58 -60 -73 -49 -14 11 -14 11 -3 -3 11 -15 7 -22 -30 -54 -48 -42 -35
-35 30 16 63 49 143 152 192 246 26 51 47 80 54 76 6 -3 6 -1 -1 8 -15 16 -17
33 -3 24 5 -3 15 5 21 18 9 20 25 27 97 43 48 10 95 17 105 16 9 0 17 3 17 8
0 4 17 11 37 15 51 9 298 91 350 115 52 24 50 24 56 3 4 -15 5 -14 6 3 1 23
91 74 91 51 0 -8 3 -8 9 2 5 8 58 41 118 72 59 32 119 65 133 72 14 8 36 21
50 28 14 8 40 24 58 37 17 13 37 20 43 16 7 -4 9 -3 6 3 -4 6 8 20 26 32 17
11 41 26 52 33 11 7 22 15 25 18 3 3 50 42 105 85 55 44 125 104 155 132 30
29 61 53 68 53 6 0 12 6 12 14 0 7 19 31 43 53 100 92 277 310 376 461 29 45
57 82 60 82 4 0 16 7 27 16 18 14 18 14 -5 3 l-24 -11 23 38 c13 22 29 46 35
54 24 30 164 328 209 445 25 66 60 170 77 230 18 61 39 121 48 135 11 17 12
22 2 16 -10 -6 -12 -4 -8 10 24 81 64 331 72 446 3 48 10 99 15 113 13 33 13
45 0 25 -6 -10 -9 61 -8 200 1 118 -2 235 -6 260 -5 32 -4 41 3 30 6 -8 11
-10 11 -4 0 5 -5 15 -12 22 -9 9 -9 12 2 12 8 0 26 -23 39 -50 14 -27 26 -48
29 -46 2 2 -6 23 -16 45 -22 44 -15 55 12 19 15 -21 17 -21 12 -3 -6 19 -5 19
8 3 15 -20 31 -25 20 -6 -4 7 -3 8 4 4 6 -4 9 -12 6 -19 -2 -7 3 -21 11 -32
15 -19 16 -19 5 3 -11 22 -10 23 8 18 11 -4 37 -23 58 -43 22 -20 33 -33 25
-28 -10 5 -12 4 -7 -4 4 -6 11 -9 16 -6 9 6 37 -29 75 -97 14 -24 25 -38 25
-32 0 5 -14 32 -31 58 -16 27 -28 50 -26 53 7 6 53 -56 87 -118 16 -30 30 -49
30 -43 0 5 -16 36 -35 68 -44 74 -44 82 1 31 27 -30 31 -32 16 -9 -24 35 -89
96 -148 137 -138 97 -245 179 -252 194 -6 10 -13 38 -17 63 -23 150 -94 405
-160 575 -163 417 -390 763 -714 1085 -175 175 -267 252 -456 379 -398 269
-789 421 -1295 502 -91 15 -195 22 -380 26 -166 4 -260 9 -269 17 -11 8 -13 8
-7 -1z m170 -275 l17 -23 -12 24 -11 24 168 -6 c517 -19 1027 -185 1464 -476
183 -121 280 -201 441 -361 231 -229 400 -464 545 -755 77 -155 178 -404 168
-414 -4 -4 -94 64 -180 136 -45 38 -62 64 -127 196 -101 203 -259 439 -419
627 -7 8 -12 18 -10 23 1 5 -1 6 -6 3 -5 -3 -33 20 -63 50 -30 30 -91 87 -136
126 -45 39 -80 75 -77 80 3 5 2 7 -3 6 -4 -2 -59 33 -120 77 -342 243 -667
387 -1062 469 -208 43 -498 66 -670 53 -92 -7 -105 -6 -124 10 -18 15 -19 15
-9 1 15 -19 10 -20 -108 -33 -136 -15 -369 -72 -520 -127 -47 -17 -110 -36
-140 -43 -30 -8 -46 -14 -35 -14 11 -1 -16 -18 -60 -38 -44 -20 -137 -68 -207
-107 -280 -156 -307 -169 -292 -145 5 8 1 8 -14 0 -12 -6 -26 -19 -31 -29 -6
-9 -11 -14 -11 -10 0 4 -24 -9 -52 -29 -29 -19 -52 -38 -51 -42 1 -3 -6 -15
-15 -26 -9 -11 3 -2 28 20 25 22 83 60 130 84 97 50 97 48 -25 -44 -82 -62
-208 -172 -307 -266 -21 -20 -39 -34 -42 -32 -2 2 -7 -1 -12 -8 -4 -8 -3 -10
4 -5 18 11 14 -10 -3 -24 -9 -7 -50 -56 -92 -109 -42 -53 -110 -132 -152 -176
-42 -44 -54 -60 -27 -35 54 50 51 40 -19 -69 -53 -83 -133 -235 -171 -324
l-29 -69 -6 64 -6 63 -1 -78 c-2 -81 -47 -241 -62 -217 -4 6 -7 -4 -7 -22 1
-45 -22 -120 -33 -113 -6 3 -7 -1 -4 -9 3 -8 -4 -59 -16 -113 -11 -54 -23
-108 -26 -121 -3 -15 -9 -20 -17 -15 -9 5 -9 3 -1 -8 6 -8 9 -36 6 -62 -3 -38
-7 -47 -19 -42 -13 4 -14 3 -3 -10 9 -10 10 -31 5 -70 l-6 -55 -55 47 -54 47
32 33 c26 27 34 31 47 20 14 -11 14 -10 2 6 -13 17 -17 16 -52 -19 -33 -33
-40 -35 -55 -23 -13 10 -15 23 -9 59 3 25 8 61 11 80 8 64 14 81 27 73 8 -4 7
-1 -2 10 -11 15 -6 25 50 84 l63 68 -57 -55 -57 -55 6 35 c14 72 75 275 85
278 5 2 7 7 4 11 -4 8 32 116 64 186 64 143 78 171 96 188 11 11 14 16 6 12
-16 -9 68 153 105 202 13 17 24 35 24 38 0 14 131 191 177 240 26 28 40 41 33
30 -8 -11 13 6 46 37 57 53 102 85 238 168 74 45 100 65 58 45 -18 -9 -71 -41
-119 -72 -47 -30 -92 -56 -100 -57 -7 -1 -31 -20 -53 -41 -22 -21 -42 -36 -45
-33 -7 7 248 266 300 304 22 16 57 46 79 67 21 20 91 72 155 115 64 42 118 80
119 85 2 4 8 5 13 1 5 -3 9 -1 9 4 0 14 135 91 285 163 107 51 138 62 180 62
44 -1 45 0 15 6 -34 6 -32 7 55 38 178 64 474 141 495 128 5 -3 17 -1 27 5 23
13 233 37 334 39 68 1 78 -1 93 -21z m-1594 -652 c0 -2 -7 -7 -16 -10 -8 -3
-12 -2 -9 4 6 10 25 14 25 6z m1851 -436 c214 -21 397 -71 577 -156 253 -119
386 -240 455 -414 36 -92 47 -144 61 -310 8 -80 24 -189 37 -243 23 -97 23
-99 6 -160 -38 -134 -45 -170 -40 -204 4 -22 65 -126 169 -286 113 -172 164
-259 164 -278 0 -30 -31 -59 -63 -59 -33 0 -116 -41 -132 -66 -21 -33 -19
-113 5 -175 23 -59 20 -80 -17 -104 -24 -16 -25 -21 -19 -69 5 -46 2 -58 -23
-97 -54 -86 -60 -128 -46 -310 9 -118 -3 -162 -52 -194 -29 -19 -111 -21 -233
-5 -41 5 -114 10 -161 10 -257 1 -406 -149 -412 -413 l-2 -87 -772 0 c-425 0
-773 2 -773 4 0 2 12 34 26 72 14 37 37 116 52 174 24 96 27 122 27 300 0 187
-2 200 -32 315 -61 235 -182 497 -376 821 -141 236 -171 339 -171 589 0 275
70 511 219 742 76 117 251 289 368 362 288 177 773 278 1158 241z m2354 -828
c-3 -3 -11 0 -18 7 -9 10 -8 11 6 5 10 -3 15 -9 12 -12z m22 -28 c-3 -3 -12
-4 -19 -1 -8 3 -5 6 6 6 11 1 17 -2 13 -5z m24 -13 c-11 -7 -11 -16 4 -55 10
-25 21 -43 26 -40 5 3 2 16 -7 30 -15 22 -15 24 0 24 9 0 18 -12 22 -27 4 -16
10 -32 14 -38 8 -10 40 -112 40 -127 0 -4 -9 -8 -20 -8 -15 0 -20 7 -21 28
l-2 27 -4 -28 c-3 -19 -10 -27 -20 -25 -11 2 -21 27 -33 86 -9 45 -14 85 -12
87 3 3 -3 7 -12 11 -13 5 -14 9 -5 20 8 10 8 14 0 14 -18 0 -13 18 7 23 29 8
38 7 23 -2z m24 -21 c3 -5 -1 -10 -9 -10 -9 0 -16 5 -16 10 0 6 4 10 9 10 6 0
13 -4 16 -10z m46 -36 c12 -20 22 -43 22 -50 0 -8 4 -14 8 -14 4 0 15 -25 25
-55 9 -31 19 -54 21 -51 7 7 -19 88 -39 121 -20 33 -22 45 -10 45 5 0 14 -12
21 -26 6 -15 14 -24 18 -21 3 4 0 13 -7 22 -7 8 -8 15 -2 15 12 0 24 -29 17
-40 -3 -5 2 -26 11 -47 9 -21 20 -51 25 -67 8 -26 6 -28 -14 -22 -12 3 -29 6
-38 6 -11 0 -19 16 -28 53 -6 28 -23 76 -36 105 -14 30 -25 56 -25 58 0 11 11
0 31 -32z m-24 -214 c-4 -17 0 -20 29 -20 l35 0 -3 -62 c-3 -57 -5 -63 -25
-66 -18 -3 -23 2 -23 17 0 15 7 21 23 22 l22 2 -23 4 c-17 3 -22 10 -20 26 2
13 -2 21 -9 20 -6 -2 -15 7 -18 20 -4 12 -9 30 -11 40 -4 11 0 17 11 17 12 0
16 -6 12 -20z m57 5 c4 -11 -1 -15 -19 -15 -16 0 -25 6 -25 15 0 8 9 15 19 15
10 0 21 -7 25 -15z m46 -1 c0 -9 -7 -14 -17 -12 -25 5 -28 28 -4 28 12 0 21
-6 21 -16z m52 -61 c29 -125 7 -271 -65 -441 l-32 -77 -6 65 c-4 43 -1 76 8
99 17 42 16 53 -1 22 -12 -22 -13 -21 -19 30 -6 54 -1 95 14 114 4 6 4 17 -1
25 -8 12 -10 10 -10 -7 0 -12 -4 -25 -10 -28 -6 -4 -10 6 -10 22 0 15 -3 38
-6 51 -5 18 -2 22 15 22 23 0 29 -25 9 -33 -7 -3 -4 -6 8 -6 15 -1 20 5 20 22
-1 16 5 23 22 25 24 4 32 -22 10 -31 -7 -3 1 -6 17 -6 17 0 25 3 19 7 -16 10
-23 192 -8 192 6 0 18 -30 26 -67z m-42 -23 c0 -53 -2 -60 -20 -60 -18 0 -20
7 -20 60 0 53 2 60 20 60 18 0 20 -7 20 -60z m345 -148 c-3 -3 -11 0 -18 7 -9
10 -8 11 6 5 10 -3 15 -9 12 -12z m-256 -126 c6 -60 11 -177 11 -259 l0 -150
-50 -93 c-33 -61 -45 -91 -35 -90 8 1 18 6 22 11 4 4 2 5 -4 1 -20 -11 -15 4
27 78 l39 70 -6 -80 c-7 -100 -24 -137 -129 -269 -46 -57 -80 -107 -76 -112 4
-4 1 -3 -5 2 -9 8 -8 24 3 70 9 33 17 80 20 105 2 25 9 70 14 100 5 30 11 91
13 135 4 62 11 93 31 133 14 29 24 52 21 52 -2 0 -13 -17 -24 -37 l-20 -38 -1
61 c0 50 7 76 36 140 40 89 84 232 84 278 1 65 18 0 29 -108z m-5722 17 c-17
-18 -22 -8 -11 22 5 12 10 13 17 6 8 -8 6 -16 -6 -28z m130 -76 c11 -19 9
-396 -2 -389 -5 3 -5 -1 1 -9 6 -8 15 -45 19 -84 l7 -70 -91 89 -90 90 0 59 1
59 30 -28 c17 -16 28 -24 25 -18 -4 7 6 17 23 24 17 7 29 15 26 17 -2 2 -17
-2 -34 -11 -28 -14 -31 -14 -50 7 -18 19 -21 35 -21 122 0 123 4 141 27 123
14 -11 14 -10 0 8 -24 27 -23 53 3 81 l22 22 48 -40 c27 -23 52 -46 56 -52z
m6108 32 c11 -17 -1 -21 -15 -4 -8 9 -8 15 -2 15 6 0 14 -5 17 -11z m-6162
-518 c63 -63 87 -95 87 -113 0 -14 3 -41 6 -59 l7 -34 -34 30 -34 30 35 -38
c23 -25 39 -55 46 -87 6 -28 9 -50 7 -50 -2 0 -21 12 -41 26 -26 19 -30 20
-12 4 14 -12 33 -28 42 -34 9 -7 27 -53 42 -109 14 -54 28 -102 31 -107 3 -6
0 -10 -7 -10 -8 -1 -7 -4 4 -10 9 -6 19 -24 23 -41 4 -17 24 -74 46 -126 24
-59 39 -114 40 -142 1 -38 2 -41 8 -17 5 26 19 2 116 -200 61 -126 109 -234
109 -241 -1 -7 2 -10 7 -7 11 7 12 44 1 44 -4 0 -18 20 -30 45 -24 49 -16 62
10 17 38 -64 169 -231 296 -377 10 -11 64 -63 120 -115 95 -87 101 -96 85
-109 -15 -11 -15 -13 -2 -8 13 4 25 -9 49 -54 21 -40 27 -59 18 -60 -12 0 18
-17 34 -18 4 -1 -6 20 -22 46 -17 26 -28 53 -26 59 3 7 -2 15 -10 18 -8 3 -14
10 -14 16 0 12 65 -37 113 -85 17 -16 27 -23 22 -16 -5 8 6 5 23 -8 18 -12 30
-27 27 -32 -4 -5 2 -9 12 -9 10 0 36 -12 57 -26 29 -20 35 -28 25 -35 -12 -7
-11 -9 1 -9 8 0 42 -27 74 -60 33 -33 62 -58 65 -55 11 11 9 35 -3 35 -7 0
-23 11 -36 25 -12 13 -28 22 -34 18 -8 -4 -8 -3 0 6 8 9 27 2 80 -28 38 -23
65 -41 59 -41 -5 0 7 -9 28 -20 21 -11 42 -18 46 -16 4 3 17 -1 27 -10 18 -14
18 -15 -3 -4 -35 16 -27 3 8 -16 17 -8 28 -11 25 -5 -4 7 -1 8 8 5 9 -3 14 -9
11 -13 -2 -4 11 -13 29 -19 39 -14 78 -52 54 -52 -16 0 -101 29 -160 54 -21 9
-38 14 -38 11 0 -17 182 -80 206 -71 13 5 14 9 4 21 -7 8 -10 15 -7 15 3 0 13
3 23 7 11 4 15 2 11 -4 -4 -6 7 -13 26 -16 55 -9 87 -25 81 -41 -4 -9 -18 -14
-42 -12 -20 1 -57 -1 -82 -5 l-45 -6 45 -3 c25 -2 51 -3 59 -2 9 0 7 -7 -7
-21 -17 -16 -37 -22 -89 -24 -85 -4 -74 14 12 20 37 3 28 3 -22 2 -46 -1 -83
2 -83 7 0 4 -10 8 -22 8 -43 0 -256 108 -312 159 -16 14 -25 19 -21 11 8 -13
7 -13 -11 0 -10 8 -28 22 -39 31 -11 10 -23 18 -28 18 -16 0 -66 35 -61 43 3
4 -3 8 -14 8 -10 0 -31 14 -48 31 l-29 32 54 -6 c42 -5 52 -4 43 5 -7 7 -30
11 -53 9 -23 -1 -47 3 -56 11 -12 9 -15 9 -9 1 15 -26 -13 -12 -74 37 -34 28
-59 50 -54 50 5 0 -3 8 -19 18 -15 10 -24 22 -20 27 5 4 2 5 -6 0 -25 -14
-391 381 -391 423 0 7 -5 10 -12 6 -8 -5 -9 -2 -5 10 4 9 3 15 -2 11 -13 -7
-111 141 -111 168 0 14 -3 18 -8 10 -5 -8 -30 27 -67 94 -93 166 -105 196
-107 277 l-1 71 -6 -60 -6 -60 -42 103 c-23 57 -39 110 -36 119 4 10 2 14 -4
10 -6 -4 -16 12 -23 38 -11 40 -10 46 10 74 12 17 29 31 38 31 13 0 14 2 4 8
-10 7 -8 14 6 33 11 13 25 35 32 49 l13 25 -25 -25 c-14 -14 -24 -27 -24 -30
1 -3 -14 -29 -33 -59 -29 -44 -36 -50 -44 -36 -5 9 -7 25 -4 36 3 10 1 19 -3
19 -9 0 -20 27 -24 63 -2 12 -6 29 -9 37 -3 8 -10 32 -16 53 -9 34 -8 38 7 33
16 -6 16 -5 0 7 -16 13 -37 80 -38 120 0 16 8 13 50 -18 28 -20 50 -35 50 -32
0 3 -24 23 -54 45 -52 40 -54 43 -61 99 -15 133 -21 213 -15 213 4 0 45 -40
93 -89z m5626 -171 c-5 -30 -18 -68 -31 -85 -14 -19 -16 -25 -5 -16 16 13 25
2 10 -13 -4 -3 -8 -26 -9 -50 -1 -39 -15 -62 -137 -225 -74 -100 -142 -192
-151 -204 -15 -21 -15 -21 -5 8 65 181 69 189 143 265 84 88 151 169 144 175
-2 3 -28 -24 -57 -60 -29 -36 -56 -63 -61 -60 -4 3 -27 -19 -51 -47 -23 -29
-39 -45 -36 -36 3 9 11 36 17 60 7 24 22 59 33 78 12 19 22 38 22 42 0 3 4 10
9 15 5 5 6 2 2 -7 -13 -25 30 29 100 128 37 51 68 91 69 90 2 -2 -1 -28 -6
-58z m-75 -346 c-14 -49 -30 -93 -35 -98 -5 -6 -9 -19 -9 -30 0 -27 -83 -231
-149 -365 -34 -70 -75 -136 -106 -170 -28 -33 -35 -43 -16 -26 l34 30 -28 -45
c-96 -155 -203 -300 -222 -300 -8 0 -11 5 -8 10 3 6 1 10 -5 10 -6 0 -8 -10
-4 -25 3 -14 2 -25 -3 -25 -5 0 -10 6 -11 13 -1 6 -4 26 -7 42 -5 24 -4 27 5
15 10 -13 11 -12 6 4 -4 11 1 27 11 40 17 20 16 20 -7 -1 l-25 -22 -1 60 c0
32 3 59 6 59 4 0 12 12 19 28 7 15 40 70 74 122 34 52 95 160 137 240 56 109
111 194 219 338 79 106 145 191 147 189 2 -2 -8 -44 -22 -93z m-104 46 c-11
-16 -26 -33 -32 -36 -7 -4 1 9 16 29 34 44 46 50 16 7z m-4970 -714 c0 -12 -5
-7 -19 24 -11 24 -11 24 3 6 9 -11 16 -24 16 -30z m4470 -254 c-18 -76 -85
-138 -179 -167 -18 -6 -3 18 63 95 48 56 93 111 99 121 20 32 30 4 17 -49z
m28 -89 c10 -46 9 -49 -24 -90 -20 -24 -40 -41 -45 -38 -5 4 -9 -1 -9 -9 0
-20 -59 -87 -71 -80 -5 3 -9 -1 -9 -9 0 -21 -99 -108 -114 -100 -6 3 -7 2 -3
-2 11 -13 -115 -126 -133 -120 -8 4 -11 3 -7 -1 14 -15 -156 -140 -175 -128
-7 4 -8 3 -4 -4 6 -10 -83 -75 -123 -90 -9 -3 -18 -8 -21 -12 -14 -16 -62 -40
-70 -35 -6 3 -10 1 -10 -4 0 -12 -92 -61 -115 -61 -8 0 -15 -4 -15 -8 0 -7
-62 -42 -75 -42 -2 0 -6 10 -8 23 -4 20 -4 19 -6 -4 -1 -22 -10 -31 -53 -49
-70 -31 -332 -119 -337 -114 -3 2 5 17 17 34 12 16 18 31 13 35 -5 3 -12 -3
-15 -13 -4 -10 -18 -30 -33 -43 -21 -20 -25 -21 -20 -6 4 11 10 30 13 43 5 20
37 41 56 36 3 -1 9 5 12 13 7 19 1 19 -31 -2 -26 -18 -27 -18 -19 7 8 30 14
53 15 61 1 4 20 12 44 18 23 7 48 15 55 17 20 9 14 -15 -12 -41 -13 -13 -21
-27 -17 -32 3 -4 -1 -2 -9 4 -9 7 -21 8 -29 4 -10 -7 -8 -10 8 -16 18 -6 20
-10 10 -23 -13 -20 28 28 68 77 15 19 21 31 13 26 -9 -5 -12 -5 -7 1 5 5 12 9
15 9 4 1 21 8 37 17 17 8 41 19 55 23 14 4 59 23 100 43 41 19 81 35 88 35 6
0 12 3 12 7 0 4 19 15 43 26 23 10 45 23 48 28 4 4 12 5 18 2 6 -4 11 -3 11 3
0 9 112 81 126 81 3 0 0 -9 -6 -21 -7 -11 -9 -23 -7 -26 3 -2 8 4 11 15 4 11
17 31 29 44 36 40 127 99 140 92 7 -4 9 -4 5 0 -4 5 37 45 90 90 53 44 126
109 163 143 38 36 76 63 92 65 14 2 29 7 33 11 4 4 12 7 18 7 5 0 -6 -17 -24
-37 -31 -34 -30 -33 10 5 25 23 50 42 55 42 4 0 17 8 28 18 11 9 17 11 13 5
-4 -7 -2 -13 3 -13 6 0 11 2 11 4 0 2 3 12 7 22 5 13 3 15 -8 9 -8 -4 -5 1 6
12 11 11 23 19 27 17 3 -2 9 2 11 8 3 7 6 -4 6 -25 1 -21 5 -36 10 -33 4 3 6
26 4 51 -6 59 3 58 15 -2z m-3598 -544 c0 -6 -4 -7 -10 -4 -5 3 -10 11 -10 16
0 6 5 7 10 4 6 -3 10 -11 10 -16z m31 -36 c13 -16 12 -17 -3 -4 -10 7 -18 15
-18 17 0 8 8 3 21 -13z m40 -40 c13 -16 12 -17 -3 -4 -10 7 -18 15 -18 17 0 8
8 3 21 -13z m309 -111 c-9 -3 -70 25 -70 33 0 2 18 -4 40 -13 21 -9 35 -18 30
-20z m377 -124 c-8 -5 -4 -8 10 -8 12 0 24 -4 28 -10 3 -5 15 -6 28 -1 13 5
30 5 39 0 10 -5 36 -10 60 -12 38 -2 50 -8 102 -62 l58 -60 -41 54 c-23 29
-40 55 -38 57 1 2 53 -2 115 -9 94 -11 116 -17 139 -38 25 -21 26 -22 9 -1
l-19 22 163 0 163 0 76 -41 c78 -43 91 -44 24 -3 -30 18 -34 24 -18 24 17 1
17 3 -4 11 -14 5 -32 7 -40 4 -11 -4 -13 -3 -6 4 6 5 57 15 115 21 58 7 145
20 195 30 49 10 91 17 93 15 2 -2 0 -24 -4 -50 -6 -42 -9 -46 -30 -42 -13 2
-21 0 -18 -4 3 -5 14 -9 26 -9 17 0 19 -4 13 -27 -4 -16 -8 -29 -9 -31 -2 -1
-40 -10 -86 -19 -63 -13 -87 -14 -101 -5 -15 9 -17 9 -13 -2 8 -20 -139 -31
-413 -31 l-222 0 -38 35 -38 35 30 -34 30 -33 -65 7 c-99 10 -152 24 -167 43
-8 9 -12 12 -9 6 4 -8 -6 -12 -29 -12 -19 0 -33 3 -31 7 2 3 -16 6 -41 7 -34
1 -50 6 -62 22 -12 16 -20 19 -31 12 -12 -8 -12 -10 5 -11 11 0 15 -3 8 -5 -7
-3 -27 1 -45 9 -18 8 -63 22 -100 31 -37 9 -89 24 -115 35 l-47 18 41 21 c22
12 43 18 47 15 3 -4 6 -2 6 4 0 12 44 33 71 33 11 0 17 5 14 10 -10 16 11 12
25 -5 7 -8 20 -15 29 -14 11 0 9 3 -6 9 -13 5 -23 13 -23 18 0 5 36 -1 79 -12
47 -12 75 -24 68 -28z m1400 -3 c-6 -25 -14 -45 -19 -45 -5 0 -7 -4 -4 -8 10
-16 -17 -82 -36 -88 -26 -8 -29 -3 -22 34 4 19 14 34 26 38 11 3 18 8 15 10
-2 2 -18 -1 -36 -7 -22 -8 -29 -14 -21 -19 8 -5 10 -15 5 -26 -5 -11 -7 -24
-6 -30 1 -10 -49 -27 -57 -20 -1 2 1 17 4 34 4 20 13 32 23 33 13 1 12 2 -2 6
-16 4 -17 11 -12 46 4 23 10 45 14 48 13 13 61 19 61 8 0 -6 7 -4 15 5 9 8 22
13 30 10 8 -4 15 -1 15 5 0 6 4 11 9 11 4 0 4 -20 -2 -45z m-1774 -32 c-7 -2
-19 -2 -25 0 -7 3 -2 5 12 5 14 0 19 -2 13 -5z m1570 -408 c-3 -9 -8 -14 -10
-11 -3 3 -2 9 2 15 9 16 15 13 8 -4z"/>
<path d="M8600 10440 c6 -11 13 -20 16 -20 2 0 0 9 -6 20 -6 11 -13 20 -16 20
-2 0 0 -9 6 -20z"/>
<path d="M7633 10323 c9 -2 25 -2 35 0 9 3 1 5 -18 5 -19 0 -27 -2 -17 -5z"/>
<path d="M7468 10173 c6 -2 18 -2 25 0 6 3 1 5 -13 5 -14 0 -19 -2 -12 -5z"/>
<path d="M7382 10158 c-24 -5 -42 -12 -39 -14 5 -5 107 16 107 22 0 6 -17 4
-68 -8z"/>
<path d="M7210 10100 c-8 -5 -10 -10 -5 -10 6 0 17 5 25 10 8 5 11 10 5 10 -5
0 -17 -5 -25 -10z"/>
<path d="M7130 10070 c-8 -5 -10 -10 -5 -10 6 0 17 5 25 10 8 5 11 10 5 10 -5
0 -17 -5 -25 -10z"/>
<path d="M7070 10045 c-14 -8 -20 -14 -15 -14 6 0 21 6 35 14 14 8 21 14 15
14 -5 0 -21 -6 -35 -14z"/>
<path d="M6819 9927 c-14 -12 -35 -28 -45 -35 -10 -7 -1 -3 21 8 55 27 69 37
59 43 -5 3 -21 -5 -35 -16z"/>
<path d="M6764 9858 l-19 -23 23 19 c21 18 27 26 19 26 -2 0 -12 -10 -23 -22z"/>
<path d="M6719 9803 c-13 -16 -12 -17 4 -4 9 7 17 15 17 17 0 8 -8 3 -21 -13z"/>
<path d="M6764 9764 c-18 -14 -18 -15 4 -4 12 6 22 13 22 15 0 8 -5 6 -26 -11z"/>
<path d="M10420 9716 c0 -2 8 -10 18 -17 15 -13 16 -12 3 4 -13 16 -21 21 -21
13z"/>
<path d="M6690 9640 c-23 -27 -40 -50 -37 -50 3 0 24 23 47 50 23 28 40 50 37
50 -3 0 -24 -22 -47 -50z"/>
<path d="M6509 9643 c-13 -16 -12 -17 4 -4 9 7 17 15 17 17 0 8 -8 3 -21 -13z"/>
<path d="M10520 9616 c0 -2 8 -10 18 -17 15 -13 16 -12 3 4 -13 16 -21 21 -21
13z"/>
<path d="M6499 9513 c-13 -16 -12 -17 4 -4 9 7 17 15 17 17 0 8 -8 3 -21 -13z"/>
<path d="M6529 9483 c-13 -16 -12 -17 4 -4 9 7 17 15 17 17 0 8 -8 3 -21 -13z"/>
<path d="M6454 9458 l-19 -23 23 19 c12 11 22 21 22 23 0 8 -8 2 -26 -19z"/>
<path d="M6484 9448 l-19 -23 23 19 c12 11 22 21 22 23 0 8 -8 2 -26 -19z"/>
<path d="M6429 9403 l-24 -28 28 24 c15 14 27 26 27 28 0 8 -8 1 -31 -24z"/>
<path d="M6329 9313 c-13 -16 -12 -17 4 -4 9 7 17 15 17 17 0 8 -8 3 -21 -13z"/>
<path d="M6259 9233 c-13 -16 -12 -17 4 -4 9 7 17 15 17 17 0 8 -8 3 -21 -13z"/>
<path d="M6200 9089 c-35 -31 -35 -31 -3 -9 18 11 35 25 38 30 10 16 2 11 -35
-21z"/>
<path d="M6124 9038 c-42 -31 -52 -42 -28 -30 12 6 23 10 25 8 2 -2 12 7 22
20 22 30 18 30 -19 2z"/>
<path d="M6071 8864 c0 -11 3 -14 6 -6 3 7 2 16 -1 19 -3 4 -6 -2 -5 -13z"/>
<path d="M5943 8740 c0 -25 2 -35 4 -22 2 12 2 32 0 45 -2 12 -4 2 -4 -23z"/>
<path d="M5951 8664 c0 -11 3 -14 6 -6 3 7 2 16 -1 19 -3 4 -6 -2 -5 -13z"/>
<path d="M5971 8590 c0 -8 4 -22 9 -30 12 -18 12 -2 0 25 -6 13 -9 15 -9 5z"/>
<path d="M5900 8494 c0 -6 7 -19 16 -30 14 -18 14 -18 3 6 -14 31 -19 36 -19
24z"/>
<path d="M5935 8439 c-28 -29 -39 -44 -25 -34 24 18 86 85 78 85 -2 0 -26 -23
-53 -51z"/>
<path d="M5850 8166 c0 -2 8 -10 18 -17 15 -13 16 -12 3 4 -13 16 -21 21 -21
13z"/>
<path d="M5869 8093 l-24 -28 28 24 c25 23 32 31 24 31 -2 0 -14 -12 -28 -27z"/>
<path d="M5790 8086 c0 -2 8 -10 18 -17 15 -13 16 -12 3 4 -13 16 -21 21 -21
13z"/>
<path d="M8486 9208 c-10 -51 -19 -107 -22 -123 -5 -28 -11 -32 -72 -49 -37
-10 -72 -20 -79 -22 -6 -3 -46 37 -90 88 -43 51 -81 96 -84 98 -4 3 -41 -14
-82 -38 l-76 -44 40 -110 c21 -61 42 -114 45 -119 3 -5 -22 -36 -54 -69 l-60
-60 -104 39 c-56 22 -110 42 -119 46 -12 4 -26 -12 -57 -66 -23 -39 -42 -77
-41 -83 0 -6 43 -46 95 -90 52 -43 93 -84 90 -90 -2 -6 -12 -41 -22 -77 l-18
-66 -123 -23 -124 -23 3 -90 3 -91 120 -21 119 -20 23 -80 c12 -44 19 -83 15
-86 -4 -3 -46 -38 -94 -78 -49 -40 -88 -78 -88 -83 0 -20 83 -149 94 -145 6 2
60 21 119 42 l109 38 58 -59 58 -59 -43 -115 -44 -115 21 -15 c12 -8 47 -29
78 -47 l57 -32 81 98 82 98 78 -22 77 -23 12 -53 c6 -30 16 -87 23 -126 l12
-73 88 0 88 0 10 48 c6 26 16 82 23 125 6 44 17 80 23 81 6 2 41 12 79 24 l67
20 82 -96 c44 -53 84 -97 87 -97 10 0 140 76 146 85 3 4 -13 56 -35 115 -22
59 -40 113 -40 119 0 14 102 116 115 116 6 0 59 -18 118 -40 60 -22 112 -38
117 -35 17 10 91 148 83 155 -4 4 -47 39 -95 79 -49 40 -88 78 -88 85 0 6 8
43 18 81 l18 70 125 22 c68 12 125 22 127 22 1 1 1 40 0 89 l-3 87 -35 8 c-19
4 -75 15 -124 25 l-88 17 -22 77 -23 76 98 83 98 83 -31 57 c-60 108 -46 104
-180 53 l-117 -43 -53 55 c-29 31 -54 59 -56 63 -1 4 16 58 38 120 22 62 40
114 40 116 0 6 -138 85 -148 85 -6 0 -45 -42 -89 -94 -63 -76 -82 -93 -98 -88
-11 3 -47 13 -80 22 l-60 15 -22 120 c-12 66 -22 121 -23 123 0 1 -40 2 -89 2
l-89 0 -16 -92z m302 -371 c99 -34 172 -80 246 -153 192 -191 241 -482 121
-723 -111 -221 -320 -351 -565 -351 -303 0 -554 208 -616 510 -31 157 2 331
90 462 87 131 242 240 390 274 93 21 244 12 334 -19z"/>
<path d="M8483 8716 c-90 -21 -146 -49 -201 -100 -86 -80 -130 -222 -104 -328
6 -24 32 -79 57 -123 25 -44 55 -105 67 -135 28 -73 35 -194 15 -255 l-16 -45
215 0 214 0 0 35 c0 24 9 44 29 67 29 32 32 33 109 33 44 0 84 3 88 7 4 5 7
27 6 50 -2 36 3 58 26 128 3 8 4 30 3 47 -2 27 2 35 23 43 14 5 26 15 26 21 0
7 -21 46 -46 87 -43 68 -46 77 -36 108 6 21 7 48 1 71 -5 21 -9 54 -9 73 -1
51 -33 113 -74 145 -88 67 -267 99 -393 71z m155 -252 c14 -9 22 -26 22 -43 0
-15 5 -32 10 -37 16 -16 -7 -67 -37 -81 -15 -7 -42 -13 -60 -13 -27 0 -33 4
-33 23 -1 12 -7 33 -15 47 -20 34 -19 74 3 92 35 31 77 36 110 12z"/>
<path d="M11241 8444 c0 -11 3 -14 6 -6 3 7 2 16 -1 19 -3 4 -6 -2 -5 -13z"/>
<path d="M11251 8404 c0 -11 3 -14 6 -6 3 7 2 16 -1 19 -3 4 -6 -2 -5 -13z"/>
<path d="M11360 8071 c0 -25 6 -27 13 -6 4 8 2 17 -3 20 -6 4 -10 -3 -10 -14z"/>
<path d="M11351 8024 c0 -11 3 -14 6 -6 3 7 2 16 -1 19 -3 4 -6 -2 -5 -13z"/>
<path d="M11341 7984 c0 -11 3 -14 6 -6 3 7 2 16 -1 19 -3 4 -6 -2 -5 -13z"/>
<path d="M11402 7755 c-17 -37 -14 -45 4 -12 9 16 14 31 11 33 -2 2 -9 -7 -15
-21z"/>
<path d="M11338 7302 c-56 -85 -62 -99 -25 -57 20 21 35 42 34 46 -1 4 7 14
17 22 11 8 15 16 9 20 -6 4 -22 -10 -35 -31z"/>
<path d="M5835 7640 c-3 -6 1 -7 9 -4 18 7 21 14 7 14 -6 0 -13 -4 -16 -10z"/>
<path d="M5790 7295 c13 -14 26 -25 28 -25 3 0 -5 11 -18 25 -13 14 -26 25
-28 25 -3 0 5 -11 18 -25z"/>
<path d="M5830 7035 c0 -2 18 -14 40 -25 22 -11 40 -18 40 -15 0 2 -18 14 -40
25 -22 11 -40 18 -40 15z"/>
<path d="M5941 6820 c-18 -33 -30 -60 -28 -60 8 0 69 112 64 116 -2 2 -18 -23
-36 -56z"/>
<path d="M5982 6630 c0 -14 2 -19 5 -12 2 6 2 18 0 25 -3 6 -5 1 -5 -13z"/>
<path d="M6063 6570 c0 -41 2 -58 4 -37 2 20 2 54 0 75 -2 20 -4 3 -4 -38z"/>
<path d="M6063 6380 c0 -41 2 -58 4 -37 2 20 2 54 0 75 -2 20 -4 3 -4 -38z"/>
<path d="M6112 6400 c0 -19 2 -27 5 -17 2 9 2 25 0 35 -3 9 -5 1 -5 -18z"/>
<path d="M6122 6320 c0 -14 2 -19 5 -12 2 6 2 18 0 25 -3 6 -5 1 -5 -13z"/>
<path d="M6132 6250 c0 -14 2 -19 5 -12 2 6 2 18 0 25 -3 6 -5 1 -5 -13z"/>
<path d="M6141 6194 c0 -11 3 -14 6 -6 3 7 2 16 -1 19 -3 4 -6 -2 -5 -13z"/>
<path d="M6240 6119 c-12 -23 -20 -43 -18 -45 3 -2 14 17 26 41 27 56 20 60
-8 4z"/>
<path d="M6321 6034 c0 -11 3 -14 6 -6 3 7 2 16 -1 19 -3 4 -6 -2 -5 -13z"/>
<path d="M6360 6036 c0 -10 60 -126 65 -126 3 0 -9 28 -26 63 -33 65 -39 75
-39 63z"/>
<path d="M6440 5880 c6 -11 13 -20 16 -20 2 0 0 9 -6 20 -6 11 -13 20 -16 20
-2 0 0 -9 6 -20z"/>
<path d="M6485 5815 c38 -54 72 -91 120 -128 22 -18 7 1 -33 41 -44 44 -70 78
-66 85 4 7 4 9 -1 5 -4 -4 -16 3 -27 15 -11 12 -8 4 7 -18z"/>
<path d="M6660 5710 c6 -11 13 -20 16 -20 2 0 0 9 -6 20 -6 11 -13 20 -16 20
-2 0 0 -9 6 -20z"/>
<path d="M6650 5656 c0 -2 8 -10 18 -17 15 -13 16 -12 3 4 -13 16 -21 21 -21
13z"/>
<path d="M6694 5641 c0 -11 4 -17 8 -15 4 3 8 2 8 -3 0 -4 10 -19 21 -33 11
-14 18 -19 14 -11 -6 10 -2 12 16 7 17 -4 14 -1 -8 11 -18 9 -33 19 -33 23 0
3 -6 14 -13 24 -12 16 -13 16 -13 -3z"/>
<path d="M6790 5492 c11 -23 11 -24 -22 -18 l-33 5 35 -12 c19 -7 40 -15 45
-18 6 -4 19 -3 30 2 19 7 19 8 -2 8 -12 1 -31 13 -43 29 -18 23 -19 23 -10 4z"/>
<path d="M6965 5439 l-30 -7 34 -1 c19 0 40 -9 48 -18 13 -16 13 -16 3 4 -13
28 -19 31 -55 22z"/>
<path d="M7034 5383 c5 -9 -1 -13 -21 -14 -22 -2 -19 -3 12 -8 42 -7 88 0 50
7 -11 2 -26 9 -34 16 -12 8 -13 8 -7 -1z"/>
<path d="M6964 5342 c4 -3 14 -7 22 -8 9 -1 13 0 10 4 -4 3 -14 7 -22 8 -9 1
-13 0 -10 -4z"/>
<path d="M7083 5322 c10 -10 15 -21 12 -24 -3 -3 4 -8 16 -11 20 -5 19 -3 -7
24 -30 31 -48 41 -21 11z"/>
<path d="M6980 5309 c0 -8 9 -11 26 -8 3 1 20 -12 37 -28 l31 -28 -25 31 c-23
30 -69 52 -69 33z"/>
<path d="M7160 5247 c0 -2 15 -16 33 -33 l32 -29 -29 33 c-28 30 -36 37 -36
29z"/>
<path d="M7280 5226 c0 -2 8 -10 18 -17 15 -13 16 -12 3 4 -13 16 -21 21 -21
13z"/>
<path d="M7230 5186 c0 -2 8 -10 18 -17 15 -13 16 -12 3 4 -13 16 -21 21 -21
13z"/>
<path d="M7270 5156 c0 -3 9 -10 20 -16 11 -6 20 -8 20 -6 0 3 -9 10 -20 16
-11 6 -20 8 -20 6z"/>
<path d="M7370 5100 c8 -5 20 -10 25 -10 6 0 3 5 -5 10 -8 5 -19 10 -25 10 -5
0 -3 -5 5 -10z"/>
<path d="M7665 5090 c-3 -5 -1 -10 4 -10 6 0 11 5 11 10 0 6 -2 10 -4 10 -3 0
-8 -4 -11 -10z"/>
<path d="M7603 5079 c11 -7 23 -7 35 0 14 9 11 10 -18 10 -29 0 -32 -1 -17
-10z"/>
<path d="M7448 5073 c7 -3 16 -2 19 1 4 3 -2 6 -13 5 -11 0 -14 -3 -6 -6z"/>
<path d="M7488 5063 c6 -2 18 -2 25 0 6 3 1 5 -13 5 -14 0 -19 -2 -12 -5z"/>
<path d="M11368 7093 c-45 -54 -92 -116 -82 -111 12 8 107 128 101 128 -2 0
-11 -8 -19 -17z"/>
<path d="M11269 6703 c-13 -16 -12 -17 4 -4 9 7 17 15 17 17 0 8 -8 3 -21 -13z"/>
<path d="M11189 6593 c-13 -16 -12 -17 4 -4 9 7 17 15 17 17 0 8 -8 3 -21 -13z"/>
<path d="M11159 6553 c-13 -16 -12 -17 4 -4 9 7 17 15 17 17 0 8 -8 3 -21 -13z"/>
<path d="M11129 6513 c-13 -16 -12 -17 4 -4 9 7 17 15 17 17 0 8 -8 3 -21 -13z"/>
<path d="M11099 6473 c-13 -16 -12 -17 4 -4 9 7 17 15 17 17 0 8 -8 3 -21 -13z"/>
<path d="M11049 6403 c-13 -16 -12 -17 4 -4 9 7 17 15 17 17 0 8 -8 3 -21 -13z"/>
<path d="M10727 5840 c-3 -13 0 -20 8 -20 7 0 12 7 11 15 -4 24 -13 27 -19 5z"/>
<path d="M10721 5784 c0 -11 3 -14 6 -6 3 7 2 16 -1 19 -3 4 -6 -2 -5 -13z"/>
<path d="M10514 5668 l-19 -23 23 19 c21 18 27 26 19 26 -2 0 -12 -10 -23 -22z"/>
<path d="M10479 5623 c-13 -16 -12 -17 4 -4 9 7 17 15 17 17 0 8 -8 3 -21 -13z"/>
<path d="M10130 5346 c0 -2 8 -10 18 -17 15 -13 16 -12 3 4 -13 16 -21 21 -21
13z"/>
<path d="M9900 5262 c0 -5 7 -9 15 -9 8 0 12 4 9 9 -3 4 -9 8 -15 8 -5 0 -9
-4 -9 -8z"/>
<path d="M9771 5164 c0 -11 3 -14 6 -6 3 7 2 16 -1 19 -3 4 -6 -2 -5 -13z"/>
<path d="M9757 5125 c-4 -8 -2 -17 3 -20 6 -4 10 3 10 14 0 25 -6 27 -13 6z"/>
<path d="M7658 4983 c7 -3 16 -2 19 1 4 3 -2 6 -13 5 -11 0 -14 -3 -6 -6z"/>
<path d="M7698 4978 c7 -9 22 -13 37 -10 31 6 33 14 3 11 -13 -2 -30 1 -38 6
-13 7 -13 6 -2 -7z"/>
<path d="M7854 4968 c12 -18 23 -25 34 -21 13 6 13 7 1 11 -7 3 -23 12 -33 21
-19 16 -19 15 -2 -11z"/>
<path d="M8014 4962 c7 -9 5 -16 -5 -23 -11 -7 -10 -9 5 -9 10 0 25 -8 33 -17
8 -10 12 -13 9 -6 -4 6 0 14 6 16 9 4 9 6 -2 6 -8 1 -23 11 -35 24 -11 13 -16
17 -11 9z"/>
<path d="M7808 4963 c7 -3 16 -2 19 1 4 3 -2 6 -13 5 -11 0 -14 -3 -6 -6z"/>
<path d="M7948 4943 c7 -3 16 -2 19 1 4 3 -2 6 -13 5 -11 0 -14 -3 -6 -6z"/>
<path d="M8878 4923 c7 -3 16 -2 19 1 4 3 -2 6 -13 5 -11 0 -14 -3 -6 -6z"/>
<path d="M8923 4913 c9 -2 23 -2 30 0 6 3 -1 5 -18 5 -16 0 -22 -2 -12 -5z"/>
<path d="M8492 4894 c9 -10 32 -28 50 -38 39 -22 29 -11 -27 29 -23 17 -33 21
-23 9z"/>
<path d="M9018 4903 c23 -2 59 -2 80 0 20 2 1 4 -43 4 -44 0 -61 -2 -37 -4z"/>
<path d="M7938 4873 c7 -3 16 -2 19 1 4 3 -2 6 -13 5 -11 0 -14 -3 -6 -6z"/>
<path d="M7978 4863 c7 -3 16 -2 19 1 4 3 -2 6 -13 5 -11 0 -14 -3 -6 -6z"/>
<path d="M8920 4866 c0 -3 9 -10 20 -16 11 -6 20 -8 20 -6 0 3 -9 10 -20 16
-11 6 -20 8 -20 6z"/>
<path d="M9272 4985 c0 -16 2 -22 5 -12 2 9 2 23 0 30 -3 6 -5 -1 -5 -18z"/>
<path d="M7613 10743 c15 -2 37 -2 50 0 12 2 0 4 -28 4 -27 0 -38 -2 -22 -4z"/>
<path d="M6975 10668 l-50 -53 53 50 c48 46 57 55 49 55 -1 0 -25 -24 -52 -52z"/>
<path d="M6889 10573 c-13 -16 -12 -17 4 -4 9 7 17 15 17 17 0 8 -8 3 -21 -13z"/>
<path d="M6859 10533 c-13 -16 -12 -17 4 -4 9 7 17 15 17 17 0 8 -8 3 -21 -13z"/>
<path d="M6940 10483 l-65 -68 68 65 c62 60 72 70 64 70 -1 0 -32 -30 -67 -67z"/>
<path d="M6849 10383 c-13 -16 -12 -17 4 -4 9 7 17 15 17 17 0 8 -8 3 -21 -13z"/>
<path d="M6999 10383 c-13 -16 -12 -17 4 -4 16 13 21 21 13 21 -2 0 -10 -8
-17 -17z"/>
<path d="M5079 9493 c-13 -16 -12 -17 4 -4 16 13 21 21 13 21 -2 0 -10 -8 -17
-17z"/>
<path d="M4987 9398 c-23 -31 -56 -89 -44 -78 10 9 76 110 72 110 -2 0 -15
-15 -28 -32z"/>
<path d="M5798 9373 c7 -3 16 -2 19 1 4 3 -2 6 -13 5 -11 0 -14 -3 -6 -6z"/>
<path d="M5748 9363 c7 -3 16 -2 19 1 4 3 -2 6 -13 5 -11 0 -14 -3 -6 -6z"/>
<path d="M5628 9333 c7 -3 16 -2 19 1 4 3 -2 6 -13 5 -11 0 -14 -3 -6 -6z"/>
<path d="M5404 9244 c-18 -14 -18 -15 4 -4 12 6 22 13 22 15 0 8 -5 6 -26 -11z"/>
<path d="M5324 9188 l-19 -23 23 19 c21 18 27 26 19 26 -2 0 -12 -10 -23 -22z"/>
<path d="M4901 9184 c0 -11 3 -14 6 -6 3 7 2 16 -1 19 -3 4 -6 -2 -5 -13z"/>
<path d="M5375 8968 l-40 -43 43 40 c39 36 47 45 39 45 -2 0 -21 -19 -42 -42z"/>
<path d="M4840 8985 c0 -5 5 -17 10 -25 5 -8 10 -10 10 -5 0 6 -5 17 -10 25
-5 8 -10 11 -10 5z"/>
<path d="M4874 8912 c8 -16 40 -62 70 -102 31 -40 56 -78 56 -83 0 -6 3 -7 7
-4 7 8 33 -11 33 -25 0 -5 -5 -6 -11 -2 -6 3 2 -13 17 -36 27 -40 43 -57 131
-142 l38 -38 -3 41 -4 42 48 -34 c27 -18 51 -36 54 -39 3 -4 14 -10 25 -14
l20 -7 -20 18 c-11 11 -27 22 -35 25 -36 13 -191 138 -260 208 -89 89 -112
117 -146 176 -29 49 -43 60 -20 16z m251 -284 c62 -53 75 -68 75 -93 0 -29 0
-29 -63 33 -57 56 -107 122 -93 122 3 0 40 -28 81 -62z"/>
<path d="M5609 8913 c-13 -16 -12 -17 4 -4 9 7 17 15 17 17 0 8 -8 3 -21 -13z"/>
<path d="M5527 8558 c-30 -41 -64 -97 -51 -83 16 16 84 115 79 115 -2 0 -15
-15 -28 -32z"/>
<path d="M5138 8515 c10 -16 22 -37 25 -45 5 -13 6 -13 6 0 1 8 -11 29 -25 45
l-26 30 20 -30z"/>
<path d="M5245 8460 c10 -11 20 -20 23 -20 3 0 -3 9 -13 20 -10 11 -20 20 -23
20 -3 0 3 -9 13 -20z"/>
<path d="M5360 8466 c0 -3 9 -10 20 -16 11 -6 20 -8 20 -6 0 3 -9 10 -20 16
-11 6 -20 8 -20 6z"/>
<path d="M5174 8448 c-4 -7 -3 -10 1 -5 11 9 45 -22 45 -41 0 -9 3 -12 7 -8 4
3 27 -13 52 -36 25 -24 38 -34 30 -24 -7 11 -31 35 -51 54 -21 19 -38 41 -38
50 0 8 -3 12 -7 9 -3 -4 -12 -2 -19 4 -9 7 -14 6 -20 -3z"/>
<path d="M5301 8442 c-1 -8 -6 -10 -13 -6 -8 5 -7 1 2 -10 15 -19 26 -7 17 17
-4 9 -6 9 -6 -1z"/>
<path d="M5440 8416 c0 -3 9 -10 20 -16 11 -6 20 -8 20 -6 0 3 -9 10 -20 16
-11 6 -20 8 -20 6z"/>
<path d="M5320 8406 c0 -2 14 -14 30 -26 17 -12 30 -19 30 -16 0 2 -13 14 -30
26 -16 12 -30 19 -30 16z"/>
<path d="M5490 8386 c0 -3 9 -10 20 -16 11 -6 20 -8 20 -6 0 3 -9 10 -20 16
-11 6 -20 8 -20 6z"/>
<path d="M5225 8360 c3 -5 8 -10 11 -10 2 0 4 5 4 10 0 6 -5 10 -11 10 -5 0
-7 -4 -4 -10z"/>
<path d="M5350 8297 c8 -11 41 -39 75 -64 l60 -46 -45 44 c-25 24 -47 43 -49
41 -3 -1 -16 8 -30 20 -16 15 -20 16 -11 5z"/>
<path d="M5297 8259 c4 -13 8 -18 11 -10 2 7 -1 18 -6 23 -8 8 -9 4 -5 -13z"/>
<path d="M5381 8224 c0 -11 3 -14 6 -6 3 7 2 16 -1 19 -3 4 -6 -2 -5 -13z"/>
<path d="M5306 8207 c3 -10 9 -15 12 -12 3 3 0 11 -7 18 -10 9 -11 8 -5 -6z"/>
<path d="M5320 8170 c0 -5 5 -10 11 -10 5 0 7 5 4 10 -3 6 -8 10 -11 10 -2 0
-4 -4 -4 -10z"/>
<path d="M5370 8139 c0 -5 -5 -7 -11 -3 -6 3 -3 -5 6 -20 10 -14 18 -26 19
-26 2 0 1 14 -2 30 -4 29 -12 41 -12 19z"/>
<path d="M5379 8021 c9 -27 19 -44 22 -39 5 8 -26 88 -34 88 -2 0 4 -22 12
-49z"/>
<path d="M5422 7955 c6 -14 15 -25 20 -25 5 0 1 11 -8 25 -9 14 -18 25 -20 25
-2 0 2 -11 8 -25z"/>
<path d="M5410 7915 c0 -5 5 -17 10 -25 5 -8 10 -10 10 -5 0 6 -5 17 -10 25
-5 8 -10 11 -10 5z"/>
<path d="M11791 7904 c0 -11 3 -14 6 -6 3 7 2 16 -1 19 -3 4 -6 -2 -5 -13z"/>
<path d="M11801 7864 c0 -11 3 -14 6 -6 3 7 2 16 -1 19 -3 4 -6 -2 -5 -13z"/>
<path d="M11763 7770 c0 -47 2 -66 4 -42 2 23 2 61 0 85 -2 23 -4 4 -4 -43z"/>
<path d="M11901 7824 c0 -11 3 -14 6 -6 3 7 2 16 -1 19 -3 4 -6 -2 -5 -13z"/>
<path d="M11812 7810 c0 -14 2 -19 5 -12 2 6 2 18 0 25 -3 6 -5 1 -5 -13z"/>
<path d="M11861 7794 c0 -11 3 -14 6 -6 3 7 2 16 -1 19 -3 4 -6 -2 -5 -13z"/>
<path d="M11911 7784 c0 -11 3 -14 6 -6 3 7 2 16 -1 19 -3 4 -6 -2 -5 -13z"/>
<path d="M12122 7745 c12 -24 23 -43 26 -41 4 5 -36 86 -43 86 -3 0 5 -20 17
-45z"/>
<path d="M12042 7765 c0 -5 6 -26 13 -45 7 -19 14 -28 14 -20 0 8 -6 29 -14
45 -7 17 -13 26 -13 20z"/>
<path d="M11922 7725 c0 -16 2 -22 5 -12 2 9 2 23 0 30 -3 6 -5 -1 -5 -18z"/>
<path d="M11873 7690 c0 -25 2 -35 4 -22 2 12 2 32 0 45 -2 12 -4 2 -4 -23z"/>
<path d="M12111 7680 c0 -8 4 -24 9 -35 5 -13 9 -14 9 -5 0 8 -4 24 -9 35 -5
13 -9 14 -9 5z"/>
<path d="M12152 7685 c0 -5 6 -26 13 -45 7 -19 14 -28 14 -20 0 8 -6 29 -14
45 -7 17 -13 26 -13 20z"/>
<path d="M12071 7664 c0 -11 3 -14 6 -6 3 7 2 16 -1 19 -3 4 -6 -2 -5 -13z"/>
<path d="M11752 7650 c0 -14 2 -19 5 -12 2 6 2 18 0 25 -3 6 -5 1 -5 -13z"/>
<path d="M11812 7640 c0 -14 2 -19 5 -12 2 6 2 18 0 25 -3 6 -5 1 -5 -13z"/>
<path d="M12082 7605 c0 -16 2 -22 5 -12 2 9 2 23 0 30 -3 6 -5 -1 -5 -18z"/>
<path d="M11741 7604 c0 -11 3 -14 6 -6 3 7 2 16 -1 19 -3 4 -6 -2 -5 -13z"/>
<path d="M12132 7595 c0 -16 2 -22 5 -12 2 9 2 23 0 30 -3 6 -5 -1 -5 -18z"/>
<path d="M11861 7584 c0 -11 3 -14 6 -6 3 7 2 16 -1 19 -3 4 -6 -2 -5 -13z"/>
<path d="M12182 7580 c0 -14 2 -19 5 -12 2 6 2 18 0 25 -3 6 -5 1 -5 -13z"/>
<path d="M11922 7560 c0 -14 2 -19 5 -12 2 6 2 18 0 25 -3 6 -5 1 -5 -13z"/>
<path d="M12144 7460 c0 -52 1 -74 3 -47 2 26 2 68 0 95 -2 26 -3 4 -3 -48z"/>
<path d="M12193 7505 c0 -22 2 -30 4 -17 2 12 2 30 0 40 -3 9 -5 -1 -4 -23z"/>
<path d="M12092 7510 c0 -14 2 -19 5 -12 2 6 2 18 0 25 -3 6 -5 1 -5 -13z"/>
<path d="M11911 7504 c0 -11 3 -14 6 -6 3 7 2 16 -1 19 -3 4 -6 -2 -5 -13z"/>
<path d="M12203 7410 c0 -25 2 -35 4 -22 2 12 2 32 0 45 -2 12 -4 2 -4 -23z"/>
<path d="M11891 7424 c0 -11 3 -14 6 -6 3 7 2 16 -1 19 -3 4 -6 -2 -5 -13z"/>
<path d="M12082 7415 c0 -16 2 -22 5 -12 2 9 2 23 0 30 -3 6 -5 -1 -5 -18z"/>
<path d="M5452 7380 c0 -14 2 -19 5 -12 2 6 2 18 0 25 -3 6 -5 1 -5 -13z"/>
<path d="M12072 7350 c0 -14 2 -19 5 -12 2 6 2 18 0 25 -3 6 -5 1 -5 -13z"/>
<path d="M12132 7325 c0 -16 2 -22 5 -12 2 9 2 23 0 30 -3 6 -5 -1 -5 -18z"/>
<path d="M5456 7328 c-11 -34 -17 -72 -11 -66 8 8 25 78 19 78 -3 0 -6 -6 -8
-12z"/>
<path d="M12193 7295 c0 -22 2 -30 4 -17 2 12 2 30 0 40 -3 9 -5 -1 -4 -23z"/>
<path d="M12061 7304 c0 -11 3 -14 6 -6 3 7 2 16 -1 19 -3 4 -6 -2 -5 -13z"/>
<path d="M11832 7275 c-17 -37 -14 -45 4 -12 9 16 14 31 11 33 -2 2 -9 -7 -15
-21z"/>
<path d="M12121 7264 c0 -11 3 -14 6 -6 3 7 2 16 -1 19 -3 4 -6 -2 -5 -13z"/>
<path d="M12111 7224 c0 -11 3 -14 6 -6 3 7 2 16 -1 19 -3 4 -6 -2 -5 -13z"/>
<path d="M12182 7220 c0 -14 2 -19 5 -12 2 6 2 18 0 25 -3 6 -5 1 -5 -13z"/>
<path d="M5432 7210 c0 -14 2 -19 5 -12 2 6 2 18 0 25 -3 6 -5 1 -5 -13z"/>
<path d="M11800 7210 c-6 -11 -8 -20 -6 -20 3 0 10 9 16 20 6 11 8 20 6 20 -3
0 -10 -9 -16 -20z"/>
<path d="M12096 7174 c-4 -14 -5 -28 -3 -31 3 -2 8 8 11 23 4 14 5 28 3 31 -3
2 -8 -8 -11 -23z"/>
<path d="M12172 7170 c0 -14 2 -19 5 -12 2 6 2 18 0 25 -3 6 -5 1 -5 -13z"/>
<path d="M11750 7120 c-6 -11 -8 -20 -6 -20 3 0 10 9 16 20 6 11 8 20 6 20 -3
0 -10 -9 -16 -20z"/>
<path d="M12161 7124 c0 -11 3 -14 6 -6 3 7 2 16 -1 19 -3 4 -6 -2 -5 -13z"/>
<path d="M12071 7099 c-6 -18 -9 -34 -7 -36 2 -2 9 10 15 28 6 18 9 34 7 36
-2 2 -9 -10 -15 -28z"/>
<path d="M11976 7065 c-9 -26 -7 -32 5 -12 6 10 9 21 6 23 -2 3 -7 -2 -11 -11z"/>
<path d="M12132 7033 c-15 -48 -8 -55 8 -8 7 20 10 38 8 41 -3 2 -10 -13 -16
-33z"/>
<path d="M5480 7056 c0 -2 8 -10 18 -17 15 -13 16 -12 3 4 -13 16 -21 21 -21
13z"/>
<path d="M11700 7040 c-6 -11 -8 -20 -6 -20 3 0 10 9 16 20 6 11 8 20 6 20 -3
0 -10 -9 -16 -20z"/>
<path d="M12046 7035 c-9 -26 -7 -32 5 -12 6 10 9 21 6 23 -2 3 -7 -2 -11 -11z"/>
<path d="M11992 6915 c-17 -36 -30 -65 -27 -65 7 0 67 121 63 126 -2 2 -18
-26 -36 -61z"/>
<path d="M12106 6965 c-9 -26 -7 -32 5 -12 6 10 9 21 6 23 -2 3 -7 -2 -11 -11z"/>
<path d="M11910 6930 c-6 -11 -8 -20 -6 -20 3 0 10 9 16 20 6 11 8 20 6 20 -3
0 -10 -9 -16 -20z"/>
<path d="M12057 6855 c-20 -41 -35 -75 -32 -75 7 0 77 141 73 146 -2 2 -21
-30 -41 -71z"/>
<path d="M11940 6820 c-6 -11 -8 -20 -6 -20 3 0 10 9 16 20 6 11 8 20 6 20 -3
0 -10 -9 -16 -20z"/>
<path d="M11960 6689 c-124 -189 -296 -373 -468 -501 -54 -40 -109 -81 -122
-91 -25 -18 -25 -18 5 -1 78 45 227 165 324 262 131 130 218 239 300 375 41
67 15 39 -39 -44z"/>
<path d="M11830 6650 c-12 -16 -19 -30 -16 -30 2 0 14 14 26 30 12 17 19 30
16 30 -2 0 -14 -13 -26 -30z"/>
<path d="M11719 6633 c-13 -16 -12 -17 4 -4 9 7 17 15 17 17 0 8 -8 3 -21 -13z"/>
<path d="M11789 6593 c-13 -16 -12 -17 4 -4 9 7 17 15 17 17 0 8 -8 3 -21 -13z"/>
<path d="M11744 6538 l-19 -23 23 19 c21 18 27 26 19 26 -2 0 -12 -10 -23 -22z"/>
<path d="M11589 6473 l-24 -28 28 24 c25 23 32 31 24 31 -2 0 -14 -12 -28 -27z"/>
<path d="M11684 6468 l-29 -33 33 29 c30 28 37 36 29 36 -2 0 -16 -15 -33 -32z"/>
<path d="M5661 6414 c0 -11 3 -14 6 -6 3 7 2 16 -1 19 -3 4 -6 -2 -5 -13z"/>
<path d="M5651 6374 c0 -11 3 -14 6 -6 3 7 2 16 -1 19 -3 4 -6 -2 -5 -13z"/>
<path d="M5643 6305 c0 -22 2 -30 4 -17 2 12 2 30 0 40 -3 9 -5 -1 -4 -23z"/>
<path d="M11479 6263 l-24 -28 28 24 c15 14 27 26 27 28 0 8 -8 1 -31 -24z"/>
<path d="M11414 6208 l-19 -23 23 19 c21 18 27 26 19 26 -2 0 -12 -10 -23 -22z"/>
<path d="M11369 6173 c-13 -16 -12 -17 4 -4 9 7 17 15 17 17 0 8 -8 3 -21 -13z"/>
<path d="M5642 6150 c0 -19 2 -27 5 -17 2 9 2 25 0 35 -3 9 -5 1 -5 -18z"/>
<path d="M5651 6084 c0 -11 3 -14 6 -6 3 7 2 16 -1 19 -3 4 -6 -2 -5 -13z"/>
<path d="M5861 6095 c0 -5 11 -30 24 -55 13 -25 24 -40 24 -35 0 6 -11 30 -24
55 -13 25 -24 41 -24 35z"/>
<path d="M11314 6064 c-18 -14 -18 -15 4 -4 12 6 22 13 22 15 0 8 -5 6 -26
-11z"/>
<path d="M5925 5960 c9 -16 18 -30 21 -30 2 0 -2 14 -11 30 -9 17 -18 30 -21
30 -2 0 2 -13 11 -30z"/>
<path d="M5700 5936 c0 -11 40 -86 45 -86 3 0 -4 19 -16 43 -23 45 -29 54 -29
43z"/>
<path d="M5960 5900 c6 -11 13 -20 16 -20 2 0 0 9 -6 20 -6 11 -13 20 -16 20
-2 0 0 -9 6 -20z"/>
<path d="M5766 5815 c49 -85 165 -206 269 -279 45 -32 21 -10 -74 67 -54 45
-127 125 -194 217 -18 25 -18 25 -1 -5z"/>
<path d="M6007 5828 c55 -76 132 -162 175 -198 45 -37 42 -33 -17 26 -39 38
-90 95 -114 127 -24 31 -46 57 -48 57 -3 0 -1 -6 4 -12z"/>
<path d="M10941 5524 c0 -11 3 -14 6 -6 3 7 2 16 -1 19 -3 4 -6 -2 -5 -13z"/>
<path d="M6080 5506 c0 -3 9 -10 20 -16 11 -6 20 -8 20 -6 0 3 -9 10 -20 16
-11 6 -20 8 -20 6z"/>
<path d="M6321 5478 c7 -13 23 -40 36 -60 21 -34 21 -38 6 -39 -14 -1 -13 -2
3 -7 12 -4 49 -43 82 -87 122 -164 312 -319 474 -387 39 -16 72 -28 74 -25 2
2 -27 16 -65 31 -93 37 -232 129 -329 221 -80 76 -192 211 -192 233 0 7 -4 12
-8 12 -4 0 -25 29 -46 65 -21 36 -40 65 -42 65 -3 0 1 -10 7 -22z"/>
<path d="M6130 5475 c0 -7 121 -67 126 -62 3 2 -9 10 -26 17 -16 7 -30 17 -30
23 0 6 -3 8 -6 4 -4 -3 -19 0 -35 9 -16 8 -29 12 -29 9z"/>
<path d="M10953 5425 c0 -33 2 -45 4 -27 2 18 2 45 0 60 -2 15 -4 0 -4 -33z"/>
<path d="M10852 5390 c0 -19 2 -27 5 -17 2 9 2 25 0 35 -3 9 -5 1 -5 -18z"/>
<path d="M6280 5400 c8 -5 20 -10 25 -10 6 0 3 5 -5 10 -8 5 -19 10 -25 10 -5
0 -3 -5 5 -10z"/>
<path d="M10752 5375 c0 -16 2 -22 5 -12 2 9 2 23 0 30 -3 6 -5 -1 -5 -18z"/>
<path d="M6438 5353 c7 -3 16 -2 19 1 4 3 -2 6 -13 5 -11 0 -14 -3 -6 -6z"/>
<path d="M10741 5324 c0 -11 3 -14 6 -6 3 7 2 16 -1 19 -3 4 -6 -2 -5 -13z"/>
<path d="M10841 5324 c0 -11 3 -14 6 -6 3 7 2 16 -1 19 -3 4 -6 -2 -5 -13z"/>
<path d="M10941 5324 c0 -11 3 -14 6 -6 3 7 2 16 -1 19 -3 4 -6 -2 -5 -13z"/>
<path d="M10731 5284 c0 -11 3 -14 6 -6 3 7 2 16 -1 19 -3 4 -6 -2 -5 -13z"/>
<path d="M6563 5265 c0 -9 13 -25 29 -36 15 -11 26 -24 23 -29 -3 -4 2 -13 10
-20 8 -7 15 -11 15 -8 0 2 24 -19 53 -47 91 -88 317 -226 367 -224 8 0 -9 9
-39 21 -40 15 -50 23 -40 30 10 6 7 7 -10 3 -16 -5 -21 -4 -17 4 5 7 1 8 -10
4 -13 -5 -15 -3 -9 7 5 8 3 11 -6 8 -7 -2 -18 -1 -24 4 -5 4 -45 31 -87 58
-46 30 -113 89 -166 145 -49 52 -89 88 -89 80z"/>
<path d="M10907 5225 c-9 -19 -15 -35 -12 -35 7 0 37 61 33 66 -3 2 -12 -12
-21 -31z"/>
<path d="M6320 5236 c0 -2 8 -10 18 -17 15 -13 16 -12 3 4 -13 16 -21 21 -21
13z"/>
<path d="M10706 5215 c-9 -26 -7 -32 5 -12 6 10 9 21 6 23 -2 3 -7 -2 -11 -11z"/>
<path d="M10797 5195 c-23 -48 -83 -112 -124 -131 -18 -9 -32 -18 -30 -20 2
-3 24 5 48 16 24 11 40 20 36 20 -4 0 4 12 18 28 30 31 80 111 73 117 -2 3
-12 -11 -21 -30z"/>
<path d="M10854 5148 l-29 -33 33 29 c30 28 37 36 29 36 -2 0 -16 -15 -33 -32z"/>
<path d="M10564 5128 c-10 -24 -34 -63 -53 -88 -19 -25 -28 -39 -19 -33 8 7
18 11 21 8 4 -3 5 -2 2 1 -2 4 6 21 18 38 25 34 59 107 54 113 -2 2 -12 -16
-23 -39z"/>
<path d="M10628 5080 c-50 -63 -57 -83 -10 -29 28 34 66 89 60 89 -1 0 -24
-27 -50 -60z"/>
<path d="M10470 5121 c0 -10 19 -25 25 -20 1 2 -3 10 -11 17 -8 7 -14 8 -14 3z"/>
<path d="M6460 5095 c13 -14 26 -25 28 -25 3 0 -5 11 -18 25 -13 14 -26 25
-28 25 -3 0 5 -11 18 -25z"/>
<path d="M10794 5104 c-18 -14 -18 -15 4 -4 12 6 22 13 22 15 0 8 -5 6 -26
-11z"/>
<path d="M10588 5073 c7 -3 16 -2 19 1 4 3 -2 6 -13 5 -11 0 -14 -3 -6 -6z"/>
<path d="M10340 5039 c0 -5 5 -7 10 -4 6 3 10 8 10 11 0 2 -4 4 -10 4 -5 0
-10 -5 -10 -11z"/>
<path d="M10425 5030 c-3 -5 -1 -10 4 -10 6 0 11 5 11 10 0 6 -2 10 -4 10 -3
0 -8 -4 -11 -10z"/>
<path d="M10429 4959 c-58 -41 -72 -57 -31 -33 36 21 90 63 81 64 -3 0 -26
-14 -50 -31z"/>
<path d="M6650 4966 c0 -3 9 -10 20 -16 11 -6 20 -8 20 -6 0 3 -9 10 -20 16
-11 6 -20 8 -20 6z"/>
<path d="M10369 4943 c-13 -16 -12 -17 4 -4 16 13 21 21 13 21 -2 0 -10 -8
-17 -17z"/>
<path d="M10315 4895 c-16 -8 -23 -14 -15 -14 8 0 26 6 40 14 32 18 15 18 -25
0z"/>
<path d="M7118 4883 c7 -3 16 -2 19 1 4 3 -2 6 -13 5 -11 0 -14 -3 -6 -6z"/>
<path d="M10253 4877 c-6 -6 -13 -19 -17 -27 -6 -12 -5 -12 6 1 7 9 20 18 28
21 9 3 10 7 3 11 -6 4 -15 1 -20 -6z"/>
<path d="M10177 4865 c-3 -7 5 -10 24 -7 35 5 36 8 5 14 -14 3 -27 0 -29 -7z"/>
<path d="M7045 4855 c22 -8 31 -14 21 -14 -11 -1 -17 -3 -14 -6 3 -3 25 -3 49
1 l44 7 -60 13 c-76 16 -91 16 -40 -1z"/>
<path d="M10018 4863 c12 -2 30 -2 40 0 9 3 -1 5 -23 4 -22 0 -30 -2 -17 -4z"/>
<path d="M6988 4843 c7 -3 16 -2 19 1 4 3 -2 6 -13 5 -11 0 -14 -3 -6 -6z"/>
<path d="M7140 4830 c-21 -7 -19 -8 15 -8 22 0 54 4 70 8 27 7 25 8 -15 8 -25
0 -56 -4 -70 -8z"/>
<path d="M10195 4800 c-10 -11 -21 -18 -25 -15 -4 2 -7 -3 -7 -11 0 -10 9 -6
29 13 15 15 28 28 28 30 0 7 -8 2 -25 -17z"/>
<path d="M9901 4774 c0 -11 3 -14 6 -6 3 7 2 16 -1 19 -3 4 -6 -2 -5 -13z"/>
<path d="M10115 4750 c-9 -16 -13 -30 -11 -30 3 0 -7 -13 -22 -28 -15 -15 -31
-26 -36 -23 -5 2 -6 -2 -1 -9 6 -9 13 -6 29 12 11 13 32 34 46 47 14 13 19 21
13 17 -18 -10 -16 10 3 28 8 9 11 16 5 16 -6 0 -17 -13 -26 -30z"/>
<path d="M9891 4724 c0 -11 3 -14 6 -6 3 7 2 16 -1 19 -3 4 -6 -2 -5 -13z"/>
<path d="M9802 4705 c0 -16 2 -22 5 -12 2 9 2 23 0 30 -3 6 -5 -1 -5 -18z"/>
<path d="M9713 4670 c0 -25 2 -35 4 -22 2 12 2 32 0 45 -2 12 -4 2 -4 -23z"/>
<path d="M9881 4674 c0 -11 3 -14 6 -6 3 7 2 16 -1 19 -3 4 -6 -2 -5 -13z"/>
<path d="M9996 4645 c-16 -12 -17 -15 -4 -15 8 0 21 7 28 15 16 19 1 19 -24 0z"/>
<path d="M9792 4630 c0 -14 2 -19 5 -12 2 6 2 18 0 25 -3 6 -5 1 -5 -13z"/>
<path d="M9871 4624 c0 -11 3 -14 6 -6 3 7 2 16 -1 19 -3 4 -6 -2 -5 -13z"/>
<path d="M10010 4605 c-7 -8 -17 -12 -24 -8 -6 3 -8 3 -4 -2 8 -8 -23 -42 -77
-83 -24 -19 -25 -21 -5 -10 14 7 27 12 30 13 7 0 104 105 98 105 -3 0 -11 -7
-18 -15z"/>
<path d="M9840 4591 l-25 -7 26 -5 c14 -3 30 0 37 8 15 15 4 16 -38 4z"/>
<path d="M9603 4573 c9 -2 25 -2 35 0 9 3 1 5 -18 5 -19 0 -27 -2 -17 -5z"/>
<path d="M9703 4540 c0 -25 2 -35 4 -22 2 12 2 32 0 45 -2 12 -4 2 -4 -23z"/>
<path d="M9762 4573 c9 -2 18 -12 20 -21 3 -13 5 -12 10 6 5 19 2 22 -20 21
-16 -1 -20 -3 -10 -6z"/>
<path d="M8384 4501 c7 -11 46 -35 46 -28 0 3 -12 12 -26 22 -15 9 -23 12 -20
6z"/>
<path d="M8650 4506 c0 -2 8 -10 18 -17 15 -13 16 -12 3 4 -13 16 -21 21 -21
13z"/>
<path d="M9771 4494 c0 -11 3 -14 6 -6 3 7 2 16 -1 19 -3 4 -6 -2 -5 -13z"/>
<path d="M8150 4476 c0 -2 8 -10 18 -17 15 -13 16 -12 3 4 -13 16 -21 21 -21
13z"/>
<path d="M9240 4470 c8 -5 20 -10 25 -10 6 0 3 5 -5 10 -8 5 -19 10 -25 10 -5
0 -3 -5 5 -10z"/>
<path d="M9831 4471 c-8 -5 -9 -11 -3 -15 5 -3 12 1 16 9 6 17 6 18 -13 6z"/>
<path d="M8447 4459 c7 -7 15 -10 18 -7 3 3 -2 9 -12 12 -14 6 -15 5 -6 -5z"/>
<path d="M8680 4466 c0 -2 8 -10 18 -17 15 -13 16 -12 3 4 -13 16 -21 21 -21
13z"/>
<path d="M9692 4440 c0 -19 2 -27 5 -17 2 9 2 25 0 35 -3 9 -5 1 -5 -18z"/>
<path d="M9856 4424 c-22 -28 -31 -33 -38 -23 -8 11 -9 11 -5 -1 2 -8 -2 -21
-10 -28 -7 -7 -13 -17 -13 -22 0 -10 68 57 87 87 23 35 12 28 -21 -13z"/>
<path d="M8523 4436 c0 -7 9 -18 19 -25 10 -6 18 -9 18 -6 0 3 -8 15 -18 26
-13 13 -19 15 -19 5z"/>
<path d="M9760 4435 c0 -8 2 -15 4 -15 2 0 6 7 10 15 3 8 1 15 -4 15 -6 0 -10
-7 -10 -15z"/>
<path d="M8240 4378 c59 -61 96 -86 58 -39 -13 15 -25 27 -27 24 -3 -2 -23 14
-46 34 -22 21 -16 12 15 -19z"/>
<path d="M8730 4398 c0 -4 14 -8 30 -8 17 0 30 2 30 4 0 2 -13 6 -30 8 -16 3
-30 1 -30 -4z"/>
<path d="M9548 4403 c12 -2 32 -2 45 0 12 2 2 4 -23 4 -25 0 -35 -2 -22 -4z"/>
<path d="M9751 4384 c0 -11 3 -14 6 -6 3 7 2 16 -1 19 -3 4 -6 -2 -5 -13z"/>
<path d="M9682 4355 c0 -16 2 -22 5 -12 2 9 2 23 0 30 -3 6 -5 -1 -5 -18z"/>
<path d="M8800 4325 c13 -14 26 -25 28 -25 3 0 -5 11 -18 25 -13 14 -26 25
-28 25 -3 0 5 -11 18 -25z"/>
<path d="M9741 4338 c-1 -10 -5 -18 -11 -18 -5 0 -7 -7 -3 -17 5 -14 8 -12 15
7 5 13 7 28 4 34 -2 6 -5 3 -5 -6z"/>
<path d="M8330 4306 c0 -3 9 -10 20 -16 11 -6 20 -8 20 -6 0 3 -9 10 -20 16
-11 6 -20 8 -20 6z"/>
<path d="M9666 4295 c-3 -8 -1 -17 3 -20 5 -3 11 2 15 10 3 8 1 17 -3 20 -5 3
-11 -2 -15 -10z"/>
<path d="M8070 4296 c0 -2 8 -10 18 -17 15 -13 16 -12 3 4 -13 16 -21 21 -21
13z"/>
<path d="M9766 4283 c-6 -14 -5 -15 5 -6 7 7 10 15 7 18 -3 3 -9 -2 -12 -12z"/>
<path d="M8410 4260 c8 -5 20 -10 25 -10 6 0 3 5 -5 10 -8 5 -19 10 -25 10 -5
0 -3 -5 5 -10z"/>
<path d="M8790 4260 c-8 -5 -10 -10 -5 -10 6 0 17 5 25 10 8 5 11 10 5 10 -5
0 -17 -5 -25 -10z"/>
<path d="M9745 4249 c-4 -6 -5 -12 -2 -15 2 -3 7 2 10 11 7 17 1 20 -8 4z"/>
<path d="M8150 4208 c41 -45 50 -53 50 -45 0 2 -21 23 -47 47 l-48 45 45 -47z"/>
<path d="M9661 4234 c0 -11 3 -14 6 -6 3 7 2 16 -1 19 -3 4 -6 -2 -5 -13z"/>
<path d="M9711 4234 c0 -11 3 -14 6 -6 3 7 2 16 -1 19 -3 4 -6 -2 -5 -13z"/>
<path d="M8718 4233 c7 -3 16 -2 19 1 4 3 -2 6 -13 5 -11 0 -14 -3 -6 -6z"/>
<path d="M8533 4223 c9 -2 23 -2 30 0 6 3 -1 5 -18 5 -16 0 -22 -2 -12 -5z"/>
<path d="M8643 4223 c9 -2 25 -2 35 0 9 3 1 5 -18 5 -19 0 -27 -2 -17 -5z"/>
<path d="M9651 4184 c0 -11 3 -14 6 -6 3 7 2 16 -1 19 -3 4 -6 -2 -5 -13z"/>
<path d="M9636 4134 c-4 -14 -5 -28 -3 -31 3 -2 8 8 11 23 4 14 5 28 3 31 -3
2 -8 -8 -11 -23z"/>
<path d="M9676 4144 c-5 -14 -4 -15 9 -4 17 14 19 20 6 20 -5 0 -12 -7 -15
-16z"/>
<path d="M8750 4115 c-14 -8 -20 -14 -14 -15 5 0 19 7 30 15 24 18 16 19 -16
0z"/>
<path d="M9655 4109 c-4 -6 -5 -12 -2 -15 2 -3 7 2 10 11 7 17 1 20 -8 4z"/>
<path d="M9620 4082 c0 -5 7 -9 15 -9 8 0 12 4 9 9 -3 4 -9 8 -15 8 -5 0 -9
-4 -9 -8z"/>
<path d="M8408 4053 c6 -2 18 -2 25 0 6 3 1 5 -13 5 -14 0 -19 -2 -12 -5z"/>
<path d="M8578 4053 c6 -2 18 -2 25 0 6 3 1 5 -13 5 -14 0 -19 -2 -12 -5z"/>
<path d="M9601 4023 c-8 -21 -41 -67 -75 -103 -51 -55 -53 -58 -12 -20 27 25
46 37 43 28 -13 -38 3 -15 33 46 18 36 30 70 28 76 -2 6 -10 -6 -17 -27z"/>
<path d="M8840 4036 c0 -2 8 -10 18 -17 15 -13 16 -12 3 4 -13 16 -21 21 -21
13z"/>
<path d="M8705 3910 c10 -11 20 -20 23 -20 3 0 -3 9 -13 20 -10 11 -20 20 -23
20 -3 0 3 -9 13 -20z"/>
<path d="M9258 3893 c7 -3 16 -2 19 1 4 3 -2 6 -13 5 -11 0 -14 -3 -6 -6z"/>
<path d="M9530 3880 c-6 -11 -8 -20 -6 -20 3 0 10 9 16 20 6 11 8 20 6 20 -3
0 -10 -9 -16 -20z"/>
<path d="M9499 3833 c-13 -16 -12 -17 4 -4 16 13 21 21 13 21 -2 0 -10 -8 -17
-17z"/>
<path d="M9420 3743 l-65 -68 68 65 c37 35 67 66 67 67 0 8 -10 -2 -70 -64z"/>
<path d="M8620 3736 c0 -2 8 -10 18 -17 15 -13 16 -12 3 4 -13 16 -21 21 -21
13z"/>
<path d="M9158 3723 c7 -3 16 -2 19 1 4 3 -2 6 -13 5 -11 0 -14 -3 -6 -6z"/>
<path d="M9329 3663 c-13 -16 -12 -17 4 -4 16 13 21 21 13 21 -2 0 -10 -8 -17
-17z"/>
</g>
</svg>
